<svg xmlns="http://www.w3.org/2000/svg" version="1.1" xmlns:xlink="http://www.w3.org/1999/xlink" xmlns:svgjs="http://svgjs.com/svgjs" width="512" height="512" x="0" y="0" viewBox="0 0 469.333 469.333" style="enable-background:new 0 0 512 512" xml:space="preserve" class=""><g><path d="M160 0a10.66 10.66 0 0 0-10.667 10.667v138.667H10.667A10.66 10.66 0 0 0 0 160a10.66 10.66 0 0 0 10.667 10.667H160A10.66 10.66 0 0 0 170.667 160V10.667A10.66 10.66 0 0 0 160 0zM309.333 170.667h149.333A10.66 10.66 0 0 0 469.333 160a10.66 10.66 0 0 0-10.667-10.667H320V10.667A10.66 10.66 0 0 0 309.333 0a10.66 10.66 0 0 0-10.667 10.667V160a10.662 10.662 0 0 0 10.667 10.667zM458.667 298.667H309.333a10.66 10.66 0 0 0-10.667 10.667v149.333a10.66 10.66 0 0 0 10.667 10.667A10.66 10.66 0 0 0 320 458.667V320h138.667a10.66 10.66 0 0 0 10.667-10.667 10.66 10.66 0 0 0-10.667-10.666zM160 298.667H10.667A10.66 10.66 0 0 0 0 309.333 10.66 10.66 0 0 0 10.667 320h138.667v138.667a10.66 10.66 0 0 0 10.667 10.667 10.66 10.66 0 0 0 10.667-10.667V309.333A10.662 10.662 0 0 0 160 298.667z" fill="#000000" data-original="#000000" class=""></path></g></svg>