<svg width="24" height="25" viewBox="0 0 24 25" fill="none" xmlns="http://www.w3.org/2000/svg">
<path d="M19.3 8.41949V13.5695C19.3 16.6495 17.54 17.9695 14.9 17.9695H6.10995C5.65995 17.9695 5.22996 17.9295 4.82996 17.8395C4.57996 17.7995 4.33996 17.7295 4.11996 17.6495C2.61996 17.0895 1.70996 15.7895 1.70996 13.5695V8.41949C1.70996 5.33949 3.46995 4.01953 6.10995 4.01953H14.9C17.14 4.01953 18.75 4.96953 19.18 7.13953C19.25 7.53953 19.3 7.94949 19.3 8.41949Z" stroke="white" stroke-width="1.5" stroke-miterlimit="10" stroke-linecap="round" stroke-linejoin="round"/>
<path d="M22.3011 11.4196V16.5696C22.3011 19.6496 20.5411 20.9696 17.9011 20.9696H9.11105C8.37105 20.9696 7.70106 20.8697 7.12106 20.6497C5.93106 20.2097 5.12105 19.2997 4.83105 17.8397C5.23105 17.9297 5.66105 17.9696 6.11105 17.9696H14.9011C17.5411 17.9696 19.3011 16.6496 19.3011 13.5696V8.41962C19.3011 7.94962 19.2611 7.52965 19.1811 7.13965C21.0811 7.53965 22.3011 8.87962 22.3011 11.4196Z" stroke="white" stroke-width="1.5" stroke-miterlimit="10" stroke-linecap="round" stroke-linejoin="round"/>
<path d="M10.4984 13.6394C11.9564 13.6394 13.1384 12.4574 13.1384 10.9994C13.1384 9.54136 11.9564 8.35938 10.4984 8.35938C9.04038 8.35938 7.8584 9.54136 7.8584 10.9994C7.8584 12.4574 9.04038 13.6394 10.4984 13.6394Z" stroke="white" stroke-width="1.5" stroke-miterlimit="10" stroke-linecap="round" stroke-linejoin="round"/>
<path d="M4.78027 8.7998V13.1998" stroke="white" stroke-width="1.5" stroke-miterlimit="10" stroke-linecap="round" stroke-linejoin="round"/>
<path d="M16.2217 8.7998V13.1998" stroke="#292D32" stroke-width="1.5" stroke-miterlimit="10" stroke-linecap="round" stroke-linejoin="round"/>
</svg>
