<svg width="24" height="24" viewBox="0 0 24 24" fill="none" xmlns="http://www.w3.org/2000/svg">
    <path
        d="M2.5798 19.0112L2.5598 19.0312C2.2898 18.4413 2.1198 17.7713 2.0498 17.0312C2.1198 17.7613 2.3098 18.4212 2.5798 19.0112Z"
        fill="white" />
    <path
        d="M9.00012 10.3811C10.3146 10.3811 11.3801 9.31553 11.3801 8.00109C11.3801 6.68666 10.3146 5.62109 9.00012 5.62109C7.68568 5.62109 6.62012 6.68666 6.62012 8.00109C6.62012 9.31553 7.68568 10.3811 9.00012 10.3811Z"
        fill="white" />
    <path
        d="M16.19 2H7.81C4.17 2 2 4.17 2 7.81V16.19C2 17.28 2.19 18.23 2.56 19.03C3.42 20.93 5.26 22 7.81 22H16.19C19.83 22 22 19.83 22 16.19V13.9V7.81C22 4.17 19.83 2 16.19 2ZM20.37 12.5C19.59 11.83 18.33 11.83 17.55 12.5L13.39 16.07C12.61 16.74 11.35 16.74 10.57 16.07L10.23 15.79C9.52 15.17 8.39 15.11 7.59 15.65L3.85 18.16C3.63 17.6 3.5 16.95 3.5 16.19V7.81C3.5 4.99 4.99 3.5 7.81 3.5H16.19C19.01 3.5 20.5 4.99 20.5 7.81V12.61L20.37 12.5Z"
        fill="white" />
</svg>