<svg width="60" height="61" viewBox="0 0 60 61" fill="none" xmlns="http://www.w3.org/2000/svg">
    <g clip-path="url(#clip0_1816_124997)">
        <path fill-rule="evenodd" clip-rule="evenodd"
            d="M21.6688 5.76258C25.07 5.64027 28.4546 6.29114 31.5679 7.66619C34.6812 9.04124 37.4419 11.1046 39.6423 13.701C41.4186 15.7969 42.7923 18.1961 43.7009 20.7772L44.9979 20.7772C48.1857 20.7751 51.2932 21.7887 53.8661 23.6709C56.4395 25.5534 58.346 28.2071 59.3091 31.2467C60.2721 34.2862 60.2415 37.5536 59.2217 40.5746C58.202 43.5956 56.2461 46.2131 53.6379 48.0472C52.5085 48.8414 50.949 48.5696 50.1548 47.4402C49.3606 46.3108 49.6324 44.7514 50.7618 43.9572C52.5006 42.7345 53.8045 40.9895 54.4844 38.9755C55.1642 36.9615 55.1846 34.7832 54.5426 32.7568C53.9006 30.7304 52.6295 28.9614 50.9139 27.7063C49.1983 26.4512 47.1274 25.7755 45.0018 25.7772H41.8498C40.7084 25.7772 39.712 25.0041 39.4283 23.8985C38.7704 21.3345 37.5394 18.9531 35.8279 16.9337C34.1165 14.9143 31.9692 13.3094 29.5478 12.2399C27.1264 11.1705 24.4939 10.6642 21.8485 10.7594C19.2031 10.8545 16.6138 11.5485 14.2754 12.7892C11.9371 14.0298 9.91065 15.7848 8.34869 17.9219C6.78673 20.0591 5.72996 22.5227 5.25791 25.1274C4.78587 27.732 4.91087 30.4098 5.62349 32.9592C6.33611 35.5086 7.61779 37.8631 9.37203 39.8454C10.287 40.8794 10.1906 42.4594 9.1566 43.3744C8.12261 44.2894 6.54264 44.1929 5.62763 43.1589C3.37218 40.6102 1.7243 37.583 0.808078 34.3053C-0.10815 31.0275 -0.268856 27.5846 0.338056 24.2357C0.944968 20.8869 2.30368 17.7193 4.31191 14.9716C6.32014 12.2238 8.92555 9.96745 11.932 8.37233C14.9385 6.7772 18.2676 5.8849 21.6688 5.76258Z"
            fill="#4AC9A2" />
        <path fill-rule="evenodd" clip-rule="evenodd"
            d="M41.7678 42.5451C40.7915 43.5214 39.2085 43.5214 38.2322 42.5451L30 34.3129L21.7678 42.5451C20.7915 43.5214 19.2085 43.5214 18.2322 42.5451C17.2559 41.5688 17.2559 39.9859 18.2322 39.0096L28.2322 29.0096C29.2085 28.0333 30.7915 28.0333 31.7678 29.0096L41.7678 39.0096C42.7441 39.9859 42.7441 41.5688 41.7678 42.5451Z"
            fill="#4AC9A2" />
        <path fill-rule="evenodd" clip-rule="evenodd"
            d="M30 55.7773C28.6193 55.7773 27.5 54.6581 27.5 53.2773L27.5 30.7773C27.5 29.3966 28.6193 28.2773 30 28.2773C31.3807 28.2773 32.5 29.3966 32.5 30.7773L32.5 53.2773C32.5 54.6581 31.3807 55.7773 30 55.7773Z"
            fill="#4AC9A2" />
    </g>
    <defs>
        <clipPath id="clip0_1816_124997">
            <rect width="60" height="60" fill="white" transform="translate(0 0.777344)" />
        </clipPath>
    </defs>
</svg>