<svg width="24" height="24" viewBox="0 0 24 24" fill="none" xmlns="http://www.w3.org/2000/svg">
    <g clip-path="url(#clip0_814_1052)">
        <path
            d="M9.70797 1.11914V6.23878C9.70797 6.56691 9.44284 6.83133 9.11617 6.83133H8.95797C8.63129 6.83133 8.36542 6.56691 8.36542 6.23878V1.0957C8.36542 0.251953 7.79781 0 7.25359 0C6.70937 0 6.14176 0.251953 6.14176 1.0957V6.23878C6.14176 6.56691 5.87589 6.83133 5.54922 6.83133H5.39101C5.06434 6.83133 4.79922 6.56691 4.79922 6.23878V1.11914C4.79922 -0.391125 2.64587 -0.339844 2.64587 1.13597C2.64587 2.9033 2.64587 6.02489 2.64587 6.02489C2.63561 8.73923 3.28454 9.44456 4.35536 10.2905C5.21889 10.9717 5.95642 11.362 5.95642 13.0539V23.9377H8.55067V13.0539C8.55067 11.362 9.2882 10.9717 10.1517 10.2905C11.2232 9.44456 11.8715 8.73923 11.8612 6.02489C11.8612 6.02489 11.8612 2.9033 11.8612 1.13597C11.8613 -0.339844 9.70797 -0.391125 9.70797 1.11914Z"
            fill="#FDFDFD" />
        <path
            d="M18.0575 1.62885C17.5067 3.17353 15.9211 6.79242 15.8207 9.98873C15.6654 14.9502 18.7057 14.2163 18.7599 17.4667V23.9677H21.3417L21.3541 24C21.3541 24 21.3541 23.9868 21.3541 23.9677C21.3541 23.5334 21.3541 18.3603 21.3541 13.0832C21.3541 7.86328 21.3541 2.54587 21.3541 1.6289C21.3541 -0.254958 18.9151 -0.774942 18.0575 1.62885Z"
            fill="#FDFDFD" />
    </g>
    <defs>
        <clipPath id="clip0_814_1052">
            <rect width="24" height="24" fill="white" />
        </clipPath>
    </defs>
</svg>